<svg width="11" height="9" viewBox="0 0 11 9" fill="none" xmlns="http://www.w3.org/2000/svg">
<path d="M1.8 3.10002C1.9 3.20002 2.29999 3.50001 2.89999 3.90001C3.49999 4.30001 4 4.70001 4.3 4.90001C4.3 4.90001 4.4 5.00002 4.5 5.10002C4.6 5.20002 4.7 5.3 4.8 5.3C4.9 5.4 5.00001 5.40002 5.10001 5.50002C5.20001 5.60002 5.29999 5.60002 5.39999 5.60002C5.49999 5.60002 5.6 5.60002 5.7 5.60002C5.8 5.60002 5.9 5.60002 6 5.60002C6.1 5.60002 6.2 5.50002 6.3 5.50002C6.4 5.40002 6.50001 5.4 6.60001 5.3C6.70001 5.2 6.79999 5.20002 6.89999 5.10002C6.99999 5.00002 7.10001 5.00001 7.10001 4.90001C7.40001 4.70001 8.3 4.10002 9.7 3.10002C10 2.90002 10.2 2.70001 10.4 2.40001C10.6 2.10001 10.7 1.90002 10.7 1.60002C10.7 1.40002 10.6 1.10002 10.4 1.00002C10.2 0.800015 10 0.700027 9.8 0.700027H1.7C1.4 0.700027 1.2 0.800015 1 1.00002C0.8 1.20002 0.800003 1.40003 0.800003 1.70003C0.800003 1.90003 0.900006 2.20002 1.10001 2.50002C1.30001 2.80002 1.5 3.00002 1.8 3.10002Z" fill="#D1C5AB"/>
<path d="M10.1 3.70003C8.90001 4.50003 8 5.20002 7.3 5.60002C7.1 5.80002 6.9 5.90002 6.8 6.00002C6.7 6.10002 6.5 6.2 6.3 6.3C6.1 6.4 5.9 6.40001 5.7 6.40001C5.5 6.40001 5.30001 6.4 5.10001 6.3C4.90001 6.2 4.70001 6.10002 4.60001 6.00002C4.50001 5.90002 4.30001 5.80002 4.10001 5.60002C3.60001 5.20002 2.69999 4.60003 1.39999 3.70003C1.19999 3.60003 1 3.40003 0.800003 3.20003V7.60002C0.800003 7.80002 0.900006 8.10003 1.10001 8.20003C1.30001 8.40003 1.5 8.50002 1.7 8.50002H9.8C10 8.50002 10.3 8.40003 10.4 8.20003C10.6 8.00003 10.7 7.80002 10.7 7.60002V3.20003C10.5 3.40003 10.4 3.60003 10.1 3.70003Z" fill="#D1C5AB"/>
</svg>
