<svg width="8" height="11" viewBox="0 0 8 11" fill="none" xmlns="http://www.w3.org/2000/svg">
<path d="M7.2 2.70003C7.2 2.60003 7.1 2.4 7 2.3C6.3 0.700003 4.80001 0.100021 3.60001 0.100021C2.00001 0.100021 0.2 1.20001 0 3.40001V3.90001C0 3.90001 0 4.10003 0 4.20003C0.1 5.30003 1.00001 6.40001 1.60001 7.40001C2.30001 8.50001 3.00001 9.60003 3.60001 10.7C4.00001 10 4.39999 9.20002 4.89999 8.50002C4.99999 8.30002 5.1 8.10001 5.3 7.90001C5.4 7.80001 5.50001 7.60002 5.60001 7.50002C6.30001 6.30002 7.3 5 7.3 3.8V3.3C7.4 3.1 7.2 2.70003 7.2 2.70003ZM3.7 4.90001C3.2 4.90001 2.7 4.70002 2.5 4.00002C2.5 3.90002 2.5 3.70003 2.5 3.70003V3.40001C2.5 2.60001 3.2 2.20003 3.8 2.20003C4.6 2.20003 5.10001 2.80002 5.10001 3.60002C5.10001 4.40002 4.5 4.90001 3.7 4.90001Z" fill="#D1C5AB"/>
</svg>
