<svg width="10" height="10" viewBox="0 0 10 10" fill="none" xmlns="http://www.w3.org/2000/svg">
<g filter="url(#filter0_b_5_6038)">
<path d="M9.2 7.70003C9.2 7.80003 9.20001 8.00002 9.10001 8.10002L7.8 9.3C7.7 9.4 7.70001 9.40002 7.60001 9.50002C7.50001 9.50002 7.4 9.60002 7.3 9.60002C7.3 9.60002 7.3 9.60002 7.2 9.60002H7.10001C7.00001 9.60002 6.8 9.60002 6.5 9.50002C6.2 9.50002 5.9 9.40003 5.5 9.20003C5.1 9.00003 4.7 8.80002 4.2 8.50002C3.7 8.20002 3.20001 7.70003 2.60001 7.20003C2.20001 6.80003 1.8 6.30002 1.5 6.00002C1.2 5.60002 1 5.20001 0.800003 4.90001C0.600003 4.60001 0.499994 4.30002 0.399994 4.00002C0.299994 3.70002 0.299997 3.5 0.199997 3.3C0.199997 3.1 0.199997 2.9 0.199997 2.8C0.199997 2.7 0.199997 2.60002 0.199997 2.60002C0.199997 2.50002 0.200003 2.4 0.300003 2.3C0.300003 2.2 0.4 2.10002 0.5 2.10002L1.8 0.800003C1.9 0.700003 2.00001 0.700027 2.10001 0.700027C2.20001 0.700027 2.3 0.700003 2.3 0.800003C2.4 0.800003 2.4 0.900015 2.5 1.00002L3.5 2.90001C3.6 3.00001 3.6 3.10003 3.5 3.20003C3.5 3.30003 3.4 3.40002 3.3 3.50002L2.8 4.00002C2.8 4.00002 2.8 4.00002 2.8 4.10002V4.20003C2.8 4.30003 2.9 4.50003 3 4.70003C3.1 4.90003 3.19999 5 3.39999 5.3C3.59999 5.5 3.80001 5.80002 4.10001 6.10002C4.40001 6.40002 4.59999 6.6 4.89999 6.8C5.09999 7 5.3 7.10003 5.5 7.20003C5.6 7.30003 5.8 7.3 5.8 7.3H5.89999C5.89999 7.3 5.9 7.3 6 7.3C6.1 7.3 6.00001 7.3 6.10001 7.3L6.60001 6.8C6.70001 6.7 6.8 6.60002 7 6.60002C7.1 6.60002 7.2 6.60003 7.3 6.70003L9.10001 7.8C9.10001 7.4 9.2 7.50003 9.2 7.70003Z" fill="#D1C5AB"/>
</g>
<defs>
<filter id="filter0_b_5_6038" x="-3.8" y="-3.29997" width="17" height="16.9" filterUnits="userSpaceOnUse" color-interpolation-filters="sRGB">
<feFlood flood-opacity="0" result="BackgroundImageFix"/>
<feGaussianBlur in="BackgroundImage" stdDeviation="2"/>
<feComposite in2="SourceAlpha" operator="in" result="effect1_backgroundBlur_5_6038"/>
<feBlend mode="normal" in="SourceGraphic" in2="effect1_backgroundBlur_5_6038" result="shape"/>
</filter>
</defs>
</svg>
