<svg width="11" height="11" viewBox="0 0 11 11" fill="none" xmlns="http://www.w3.org/2000/svg">
<path d="M5.89999 10.5C6.69999 10.4 7.4 9.60001 7.8 8.40001C7.2 8.30001 6.49999 8.20003 5.89999 8.20003V10.5Z" fill="#D1C5AB"/>
<path d="M7.2 10.3H7.3H7.39999H7.5H7.60001C7.60001 10.3 7.7 10.3 7.7 10.2C7.7 10.2 7.8 10.2 7.8 10.1C7.8 10.1 7.89999 10.1 7.89999 10C7.89999 10 8 10 8 9.90001C8 9.90001 8.10001 9.9 8.10001 9.8C8.10001 9.8 8.2 9.80003 8.2 9.70003C8.2 9.70003 8.3 9.70002 8.3 9.60002C8.3 9.60002 8.39999 9.60002 8.39999 9.50002L8.5 9.40001C8.5 9.40001 8.60001 9.4 8.60001 9.3L8.7 9.20003L8.8 9.10002L8.89999 9.00002L9 8.90001L9.10001 8.8L9.2 8.70003C8.8 8.50003 8.39999 8.30003 7.89999 8.20003C7.69999 8.90003 7.3 9.60002 6.7 10.1C7.1 10.3 7.1 10.3 7.2 10.3Z" fill="#D1C5AB"/>
<path d="M10.9 5.50002H8.7C8.7 6.40002 8.6 7.20002 8.3 8.00002C8.8 8.10002 9.2 8.30002 9.7 8.60002C10.4 7.80002 10.8 6.70002 10.9 5.50002Z" fill="#D1C5AB"/>
<path d="M5.89999 5.20003H8.3C8.3 4.40003 8.19999 3.6 7.89999 2.8C7.19999 3 6.59999 3.00002 5.89999 3.00002V5.20003Z" fill="#D1C5AB"/>
<path d="M5.89999 0.300003V2.70003C6.49999 2.70003 7.2 2.60002 7.8 2.50002C7.4 1.20002 6.69999 0.400003 5.89999 0.300003Z" fill="#D1C5AB"/>
<path d="M5.89999 7.70003C6.59999 7.70003 7.29999 7.80001 7.89999 7.90001C8.09999 7.10001 8.3 6.30002 8.3 5.50002H5.89999V7.70003Z" fill="#D1C5AB"/>
<path d="M9.7 2.10002C9.3 2.30002 8.8 2.50003 8.3 2.70003C8.5 3.50003 8.7 4.40003 8.7 5.20003H10.9C10.8 4.00003 10.4 3.00002 9.7 2.10002Z" fill="#D1C5AB"/>
<path d="M9.39999 1.8L9.3 1.70003L9.2 1.60002L9.10001 1.50002L9 1.40001L8.89999 1.3L8.8 1.20003C8.8 1.20003 8.7 1.20002 8.7 1.10002L8.60001 1.00002C8.60001 1.00002 8.5 1.00001 8.5 0.900009L8.39999 0.800003C8.39999 0.800003 8.3 0.800027 8.3 0.700027C8.3 0.700027 8.2 0.700021 8.2 0.600021C8.2 0.600021 8.10001 0.600015 8.10001 0.500015C8.10001 0.500015 8 0.500009 8 0.400009C8 0.400009 7.89999 0.400003 7.89999 0.300003C7.89999 0.300003 7.8 0.300027 7.8 0.200027H7.7H7.60001H7.5H7.39999H7.3C7.8 0.700027 8.2 1.40002 8.5 2.10002C8.6 2.20002 8.99999 2 9.39999 1.8Z" fill="#D1C5AB"/>
<path d="M0.600006 5.20003H2.8C2.8 4.30003 2.9 3.50003 3.2 2.70003C2.7 2.60003 2.3 2.40002 1.8 2.10002C1.1 3.00002 0.700006 4.00003 0.600006 5.20003Z" fill="#D1C5AB"/>
<path d="M5.60001 10.5V8.10002C5.00001 8.10002 4.3 8.2 3.7 8.3C4.1 9.5 4.80001 10.3 5.60001 10.5Z" fill="#D1C5AB"/>
<path d="M5.60001 5.50002H3.2C3.2 6.30002 3.30001 7.10001 3.60001 7.90001C4.30001 7.70001 4.90001 7.70003 5.60001 7.70003V5.50002Z" fill="#D1C5AB"/>
<path d="M5.60001 0.300003C4.80001 0.400003 4.1 1.20001 3.7 2.40001C4.3 2.50001 5.00001 2.60002 5.60001 2.60002V0.300003Z" fill="#D1C5AB"/>
<path d="M5.60001 3.00002C4.90001 3.00002 4.20001 2.9 3.60001 2.8C3.40001 3.6 3.2 4.40003 3.2 5.20003H5.60001V3.00002Z" fill="#D1C5AB"/>
<path d="M4.5 0.400009C4.4 0.400009 4.4 0.400009 4.3 0.400009H4.2H4.10001H4H3.89999C3.89999 0.400009 3.8 0.400015 3.8 0.500015C3.8 0.500015 3.7 0.500021 3.7 0.600021C3.7 0.600021 3.60001 0.600027 3.60001 0.700027C3.60001 0.700027 3.5 0.700003 3.5 0.800003C3.5 0.800003 3.39999 0.800009 3.39999 0.900009C3.39999 0.900009 3.3 0.900015 3.3 1.00002C3.3 1.00002 3.2 1.00002 3.2 1.10002C3.2 1.10002 3.10001 1.10003 3.10001 1.20003L3 1.3C3 1.3 2.89999 1.30001 2.89999 1.40001L2.8 1.50002L2.7 1.60002L2.60001 1.70003L2.5 1.8L2.39999 1.90001L2.3 2.00002C2.7 2.20002 3.10001 2.40002 3.60001 2.50002C3.50001 1.60002 3.9 0.900009 4.5 0.400009Z" fill="#D1C5AB"/>
<path d="M2.2 9.00002L2.3 9.10002L2.39999 9.20003L2.5 9.3L2.60001 9.40001L2.7 9.50002C2.7 9.50002 2.8 9.50002 2.8 9.60002L2.89999 9.70003C2.89999 9.70003 3 9.7 3 9.8L3.10001 9.90001C3.10001 9.90001 3.2 9.90002 3.2 10C3.2 10 3.3 10 3.3 10.1C3.3 10.1 3.39999 10.1 3.39999 10.2C3.39999 10.2 3.5 10.2 3.5 10.3C3.5 10.3 3.60001 10.3 3.60001 10.4C3.60001 10.4 3.7 10.4 3.7 10.5H3.8H3.89999H4H4.10001H4.2C3.7 10 3.3 9.30002 3 8.60002C2.6 8.70002 2.1 8.90002 1.7 9.10002C2.1 8.90002 2.1 8.90002 2.2 9.00002C2.1 8.90002 2.1 9.00002 2.2 9.00002Z" fill="#D1C5AB"/>
<path d="M1.8 8.60002C2.2 8.40002 2.7 8.20002 3.2 8.00002C3 7.20002 2.8 6.30002 2.8 5.50002H0.600006C0.700006 6.70002 1.1 7.70002 1.8 8.60002Z" fill="#D1C5AB"/>
</svg>
